<svg fill="none" height="59" width="55" xmlns="http://www.w3.org/2000/svg"><path d="m.499.476h53.996v57.105h-53.996z" fill="#fff" stroke="#e8eaed" stroke-width=".952"/><path d="m37.52 24.44c0-.794-.07-1.555-.204-2.284h-10.207v4.193h5.878a5.042 5.042 0 0 1 -2.183 3.37v2.716h3.5c2.045-1.893 3.216-4.689 3.216-7.994z" fill="#4285f4"/><path d="m27.11 35.06c2.936 0 5.401-.964 7.194-2.628l-3.5-2.717c-.973.657-2.228 1.042-3.695 1.042-2.835 0-5.239-1.911-6.102-4.486h-3.609v2.801a10.864 10.864 0 0 0 9.711 5.989z" fill="#34a853"/><path d="m21.008 26.274a6.55 6.55 0 0 1 0-4.161v-2.799h-3.608a10.827 10.827 0 0 0 -1.157 4.88c0 1.754.419 3.412 1.157 4.879l3.61-2.799z" fill="#fbbc05"/><path d="m27.11 17.628c1.6 0 3.035.552 4.17 1.63v.002l3.101-3.102c-1.883-1.754-4.34-2.832-7.272-2.832a10.864 10.864 0 0 0 -9.71 5.989l3.608 2.8c.863-2.576 3.267-4.487 6.102-4.487z" fill="#ea4335"/></svg>