<svg fill="none" height="58" width="73" xmlns="http://www.w3.org/2000/svg"><g fill="#d2e3fc" stroke="#aecbfa" stroke-linejoin="round" stroke-width=".952"><path d="m71.55 29.677c.264 0 .477.213.477.475v26.65a.476.476 0 0 1 -.476.475h-70.105a.476.476 0 0 1 -.476-.476v-26.649c0-.262.213-.476.476-.476h70.104z"/><path d="m71.251 1.23a.476.476 0 0 1 .776.37v55.2a.476.476 0 0 1 -.776.37l-34.105-27.6a.476.476 0 0 1 0-.74z"/><path d="m1.74 1.226a.476.476 0 0 0 -.77.374v55.2a.476.476 0 0 0 .77.374l35.052-27.6a.476.476 0 0 0 0-.748z"/></g></svg>